# File created by Blade
# Date/Time:  Thu Sep 25 17:14:50 2014
# Frame Rate: 120.000 fps
#------------------------------------------------------
:FULLY-SPECIFIED
:DEGREES
819
root -31.376964 30.373918 10.750600 194.487026 74.660760 182.008061
Spine -6.726279 -6.201874 4.813869
Head -20.364514 -21.430900 17.499742
LeftShoulder -1.144903 16.435564 14.588711
LeftArm 44.314295 28.453982 -56.375913
LeftForeArm -12.694763 -0.000000 21.204714
LeftHand -23.232646 -0.000000 -5.040716
LeftHandThumb1 -26.253704 0.000000 33.147579
RightShoulder -21.111043 11.025171 -21.668147
RightArm -16.003499 -6.605852 83.688634
RightForeArm 3.735480 -0.000000 27.615826
RightHand -2.855609 -0.000000 8.346025
RightHandThumb1 -24.326973 -0.000000 -32.862282
LeftUpLeg 7.667234 5.644522 -3.643993
LeftLeg 6.210664 -0.000000 -0.000000
LeftFoot -27.228473 11.677607 -29.695769
LeftToeBase -7.503086 -0.000000 0.000000
RightUpLeg -35.996813 -16.617335 19.504645
RightLeg 1.434961 -0.000000 -0.000000
RightFoot 9.032264 -7.116934 -13.365121
RightToeBase -3.362237 -0.000000 0.000000
820
root -31.087683 30.392940 10.703468 195.479049 74.964430 182.898550
Spine -6.863229 -6.508992 5.430632
Head -21.375849 -21.707039 17.378608
LeftShoulder -0.827005 16.411879 13.998263
LeftArm 45.098092 30.458916 -56.212785
LeftForeArm -12.303309 -0.000000 21.580482
LeftHand -23.177213 -0.000000 -5.159584
LeftHandThumb1 -26.253704 0.000000 33.147579
RightShoulder -20.977523 10.984146 -21.634450
RightArm -15.753453 -8.201728 85.288048
RightForeArm 4.527318 -0.000000 27.454836
RightHand -2.725409 0.000000 8.388447
RightHandThumb1 -24.326973 -0.000000 -32.862282
LeftUpLeg 7.546715 6.014056 -3.329940
LeftLeg 7.299924 -0.000000 -0.000000
LeftFoot -26.597610 11.295257 -30.282975
LeftToeBase -8.927778 -0.000000 0.000000
RightUpLeg -34.961208 -15.142664 18.736045
RightLeg 0.538043 -0.000000 -0.000000
RightFoot 9.052696 -8.658790 -12.808108
RightToeBase -2.165169 -0.000000 0.000000
821
root -30.818681 30.420179 10.641889 196.193030 75.323088 183.417307
Spine -7.034841 -6.826742 5.985174
Head -22.406414 -21.954148 17.231889
LeftShoulder -0.518624 16.347412 13.402986
LeftArm 46.085557 32.478467 -55.780322
LeftForeArm -12.436122 -0.000000 21.798990
LeftHand -22.879793 -0.000000 -6.348890
LeftHandThumb1 -26.253704 0.000000 33.147579
RightShoulder -20.824947 10.980599 -21.682558
RightArm -15.551567 -9.788513 86.849124
RightForeArm 5.172503 -0.000000 27.271090
RightHand -2.568610 -0.000000 8.735987
RightHandThumb1 -24.326973 -0.000000 -32.862282
LeftUpLeg 7.212011 6.299338 -3.201213
LeftLeg 8.614461 -0.000000 -0.000000
LeftFoot -25.797565 11.033368 -31.052308
LeftToeBase -11.171521 -0.000000 0.000000
RightUpLeg -34.065190 -13.415319 17.714926
RightLeg -0.324020 -0.000000 0.000000
RightFoot 9.083772 -10.342055 -12.076338
RightToeBase 0.146918 -0.000000 -0.000000
822
root -30.524487 30.457411 10.589504 196.964168 75.631496 184.088594
Spine -7.136202 -7.201893 6.538711
Head -23.495131 -22.273317 17.178332
LeftShoulder -0.249005 16.239021 12.779229
LeftArm 47.107319 34.466619 -55.207238
LeftForeArm -12.077563 0.000000 21.919967
LeftHand -22.196876 -0.000000 -7.580970
LeftHandThumb1 -26.253704 0.000000 33.147579
RightShoulder -20.696713 10.897946 -21.652612
RightArm -15.346746 -11.487357 88.318306
RightForeArm 5.363757 0.000000 27.092279
RightHand -2.720146 -0.000000 8.734784
RightHandThumb1 -24.326973 -0.000000 -32.862282
LeftUpLeg 6.939660 6.584623 -2.955196
LeftLeg 10.006806 -0.000000 -0.000000
LeftFoot -24.806894 10.647984 -31.938901
LeftToeBase -13.305722 -0.000000 0.000000
RightUpLeg -33.108232 -11.863208 16.842970
RightLeg -1.000851 -0.000000 0.000000
RightFoot 9.095391 -11.664365 -12.161346
RightToeBase 0.808895 -0.000000 -0.000000
823
root -30.223575 30.506007 10.531311 197.583183 75.993695 184.594322
Spine -7.268549 -7.566999 7.015287
Head -24.599822 -22.606405 17.228346
LeftShoulder 0.048220 16.129215 12.170863
LeftArm 48.219154 36.453794 -54.480269
LeftForeArm -11.868311 -0.000000 21.983142
LeftHand -21.786380 0.000000 -7.699296
LeftHandThumb1 -26.253704 0.000000 33.147579
RightShoulder -20.639901 10.682909 -21.518574
RightArm -14.971496 -13.370847 89.595871
RightForeArm 5.852284 -0.000000 26.697553
RightHand -3.010076 -0.000000 9.006195
RightHandThumb1 -24.326973 -0.000000 -32.862282
LeftUpLeg 6.575423 6.979052 -2.744117
LeftLeg 11.555127 -0.000000 -0.000000
LeftFoot -23.581822 10.241377 -32.804421
LeftToeBase -15.539657 -0.000000 0.000000
RightUpLeg -32.287810 -10.261910 15.934732
RightLeg -1.247369 -0.000000 0.000000
RightFoot 8.822196 -12.879751 -12.264617
RightToeBase 0.768031 -0.000000 -0.000000
824
root -29.923198 30.567007 10.478395 198.480719 76.414624 185.367839
Spine -7.379914 -7.874648 7.535087
Head -25.785596 -23.023627 17.324416
LeftShoulder 0.328961 15.855379 11.558992
LeftArm 49.306737 38.498473 -53.633434
LeftForeArm -11.689259 -0.000000 22.084788
LeftHand -21.223993 0.000000 -8.902555
LeftHandThumb1 -26.253704 0.000000 33.147579
RightShoulder -20.629299 10.591668 -21.369942
RightArm -14.738605 -15.289812 90.712269
RightForeArm 6.055569 -0.000000 26.255782
RightHand -2.445453 0.000000 10.111001
RightHandThumb1 -24.326973 -0.000000 -32.862282
LeftUpLeg 6.075459 7.510105 -2.456941
LeftLeg 13.308541 -0.000000 -0.000000
LeftFoot -22.093081 9.810903 -33.723092
LeftToeBase -18.078610 -0.000000 0.000000
RightUpLeg -31.598774 -8.925156 15.304556
RightLeg -1.369124 -0.000000 0.000000
RightFoot 8.555234 -13.550018 -12.436165
RightToeBase 1.410621 -0.000000 -0.000000
825
root -29.616506 30.639605 10.425863 199.520821 76.903108 186.365527
Spine -7.372292 -8.243187 8.073057
Head -26.935681 -23.216595 17.527688
LeftShoulder 0.701300 15.674000 10.953327
LeftArm 49.835299 39.805130 -53.703125
LeftForeArm -10.891264 -0.000000 21.998200
LeftHand -20.841598 -0.000000 -9.789426
LeftHandThumb1 -26.253704 0.000000 33.147579
RightShoulder -20.480584 10.566735 -21.114491
RightArm -14.593631 -17.205332 91.685746
RightForeArm 6.573071 -0.000000 25.926027
RightHand -2.568164 -0.000000 10.983145
RightHandThumb1 -24.326973 -0.000000 -32.862282
LeftUpLeg 5.579158 8.079389 -2.120226
LeftLeg 15.224562 -0.000000 -0.000000
LeftFoot -20.326283 9.440864 -34.700842
LeftToeBase -20.668180 -0.000000 0.000000
RightUpLeg -30.865697 -7.777861 14.818632
RightLeg -1.442482 -0.000000 0.000000
RightFoot 8.151280 -13.946691 -12.258035
RightToeBase 2.036872 -0.000000 -0.000000
826
root -29.307286 30.719279 10.374523 200.889921 77.564530 187.716186
Spine -7.321921 -8.478869 8.599208
Head -28.193120 -23.520800 17.749891
LeftShoulder 1.053243 15.389100 10.419471
LeftArm 50.312390 41.170262 -53.731360
LeftForeArm -10.109874 0.000000 21.824441
LeftHand -20.262870 -0.000000 -10.909890
LeftHandThumb1 -26.253704 0.000000 33.147579
RightShoulder -20.407148 10.573538 -20.926751
RightArm -14.462077 -19.166932 92.633145
RightForeArm 6.799446 -0.000000 25.410715
RightHand -2.127578 -0.000000 12.146712
RightHandThumb1 -24.326973 -0.000000 -32.862282
LeftUpLeg 4.994162 8.922504 -1.738782
LeftLeg 17.362889 -0.000000 -0.000000
LeftFoot -18.189011 9.054885 -35.476604
LeftToeBase -23.823708 -0.000000 0.000000
RightUpLeg -30.148291 -6.642281 14.422432
RightLeg -1.446861 -0.000000 0.000000
RightFoot 7.659348 -14.268056 -11.617743
RightToeBase 1.722996 -0.000000 -0.000000
827
root -28.985474 30.804093 10.334063 202.638195 78.464351 189.514588
Spine -7.161576 -8.580476 8.960051
Head -29.460621 -23.771228 18.276480
LeftShoulder 1.432722 15.059643 10.003113
LeftArm 50.321355 42.238209 -54.263271
LeftForeArm -8.953546 -0.000000 21.625321
LeftHand -19.804163 -0.000000 -11.762623
LeftHandThumb1 -26.253704 0.000000 33.147579
RightShoulder -20.340608 10.579034 -20.656716
RightArm -14.442067 -21.079288 93.498466
RightForeArm 6.737450 -0.000000 24.964965
RightHand -2.119546 -0.000000 12.790026
RightHandThumb1 -24.326973 -0.000000 -32.862282
LeftUpLeg 4.432672 10.125100 -1.292951
LeftLeg 19.597289 -0.000000 -0.000000
LeftFoot -15.657014 8.599245 -36.133733
LeftToeBase -26.659780 -0.000000 0.000000
RightUpLeg -29.341574 -5.586995 14.202410
RightLeg -1.437297 -0.000000 0.000000
RightFoot 7.132751 -14.322366 -10.873498
RightToeBase 1.786451 -0.000000 -0.000000
828
root -28.660003 30.890804 10.293574 204.846530 79.250418 191.900561
Spine -6.868252 -8.819273 9.472191
Head -30.647873 -24.030907 18.613219
LeftShoulder 1.879356 14.753104 9.598497
LeftArm 50.219727 43.095525 -54.925210
LeftForeArm -7.836573 -0.000000 21.345825
LeftHand -19.425276 -0.000000 -12.955505
LeftHandThumb1 -26.253704 0.000000 33.147579
RightShoulder -20.245055 10.602357 -20.527161
RightArm -14.496454 -22.855748 94.322123
RightForeArm 6.415136 0.000000 24.601015
RightHand -1.671354 -0.000000 14.002557
RightHandThumb1 -24.326973 -0.000000 -32.862282
LeftUpLeg 3.863230 11.351312 -0.668964
LeftLeg 22.109142 -0.000000 -0.000000
LeftFoot -12.874641 8.342265 -36.161268
LeftToeBase -29.041237 -0.000000 0.000000
RightUpLeg -28.424093 -4.857794 14.185209
RightLeg -1.442743 -0.000000 0.000000
RightFoot 6.536170 -13.982220 -10.020156
RightToeBase 2.261294 -0.000000 -0.000000
